<svg width="680" height="500" viewBox="0 0 680 500" fill="none" xmlns="http://www.w3.org/2000/svg">
  <rect width="680" height="500" rx="32" fill="url(#paint0_linear)"/>
  <rect x="70" y="80" width="540" height="340" rx="28" fill="#0E152B" stroke="url(#paint1_linear)"/>
  <rect x="100" y="120" width="220" height="180" rx="18" fill="#121D3A"/>
  <rect x="340" y="120" width="240" height="24" rx="12" fill="#22335F"/>
  <rect x="340" y="158" width="180" height="18" rx="9" fill="#1B2A4D"/>
  <rect x="340" y="188" width="210" height="18" rx="9" fill="#1B2A4D"/>
  <rect x="340" y="218" width="160" height="18" rx="9" fill="#1B2A4D"/>
  <rect x="340" y="265" width="140" height="44" rx="14" fill="#7C8BFF"/>
  <rect x="500" y="265" width="80" height="44" rx="14" fill="#1D2F5A"/>
  <rect x="100" y="320" width="480" height="70" rx="20" fill="#111B34"/>
  <circle cx="136" cy="355" r="14" fill="#6EE7D8"/>
  <rect x="160" y="344" width="200" height="22" rx="11" fill="#20325D"/>
  <rect x="508" y="342" width="72" height="26" rx="13" fill="#7C8BFF"/>
  <defs>
    <linearGradient id="paint0_linear" x1="0" y1="0" x2="680" y2="500" gradientUnits="userSpaceOnUse">
      <stop stop-color="#111939"/>
      <stop offset="1" stop-color="#050812"/>
    </linearGradient>
    <linearGradient id="paint1_linear" x1="70" y1="80" x2="610" y2="420" gradientUnits="userSpaceOnUse">
      <stop stop-color="#7C8BFF" stop-opacity="0.7"/>
      <stop offset="1" stop-color="#6EE7D8" stop-opacity="0.25"/>
    </linearGradient>
  </defs>
</svg>
